<?xml version="1.0" encoding="utf-8"?>
<!-- Generator: Adobe Illustrator 20.1.0, SVG Export Plug-In . SVG Version: 6.00 Build 0)  -->
<svg version="1.1" xmlns="http://www.w3.org/2000/svg" xmlns:xlink="http://www.w3.org/1999/xlink" x="0px" y="0px"
	 viewBox="0 0 409.7 117.5" style="enable-background:new 0 0 409.7 117.5;" xml:space="preserve">
<style type="text/css">
	.st0{fill-rule:evenodd;clip-rule:evenodd;fill:#ED1C24;}
	.st1{fill-rule:evenodd;clip-rule:evenodd;fill:#1B262D;}
	.st2{fill:#8C8C8C;}
</style>
<g id="Tekst">
	<g>
		<path class="st0" d="M350.7,12.7L350.7,12.7c0,4.9-4,8.8-8.8,8.8s-8.8-4-8.8-8.8c0-4.9,4-8.8,8.8-8.8c0.1,0,0.2,0,0.2,0
			c0.1,0,0.2,0,0.2,0c0.1,0,0.2,0,0.2,0c0.1,0,0.1,0,0.2,0c0.1,0,0.1,0,0.2,0c0.1,0,0.1,0,0.2,0c0.1,0,0.1,0,0.2,0
			c0.1,0,0.1,0,0.2,0c0.1,0,0.1,0,0.2,0c0.1,0,0.1,0,0.2,0.1c0.1,0,0.1,0,0.2,0.1c0.1,0,0.1,0,0.2,0.1c0.1,0,0.1,0,0.2,0.1
			c0.1,0,0.1,0,0.2,0.1c0.1,0,0.1,0.1,0.2,0.1c0.1,0,0.1,0.1,0.2,0.1c0.1,0,0.1,0.1,0.2,0.1c0.1,0,0.1,0.1,0.2,0.1
			c0.1,0,0.1,0.1,0.2,0.1c0.1,0,0.1,0.1,0.2,0.1c0.1,0,0.1,0.1,0.2,0.1c0.1,0,0.1,0.1,0.2,0.1c0.1,0,0.1,0.1,0.2,0.1
			c0.1,0,0.1,0.1,0.2,0.1c0.1,0,0.1,0.1,0.2,0.1c0.1,0,0.1,0.1,0.2,0.1c0.1,0,0.1,0.1,0.2,0.1c0.1,0,0.1,0.1,0.2,0.1
			c0.1,0,0.1,0.1,0.2,0.1c0.1,0,0.1,0.1,0.2,0.1c0.1,0,0.1,0.1,0.2,0.1c0.1,0,0.1,0.1,0.2,0.1c0,0,0.1,0.1,0.1,0.2
			c0,0.1,0.1,0.1,0.1,0.2c0,0.1,0.1,0.1,0.1,0.2l0,0c0,0.1,0.1,0.1,0.1,0.2c0,0.1,0.1,0.1,0.1,0.2l0,0c0,0.1,0.1,0.1,0.1,0.2l0,0
			c0,0.1,0.1,0.1,0.1,0.2c0,0.1,0.1,0.1,0.1,0.2c0,0.1,0.1,0.1,0.1,0.2c0,0.1,0.1,0.1,0.1,0.2c0,0.1,0.1,0.1,0.1,0.2
			c0,0.1,0.1,0.1,0.1,0.2l0,0c0,0.1,0.1,0.1,0.1,0.2l0,0c0,0.1,0.1,0.1,0.1,0.2c0,0.1,0.1,0.1,0.1,0.2l0,0c0,0.1,0.1,0.1,0.1,0.2
			l0,0c0,0.1,0.1,0.1,0.1,0.2c0,0.1,0.1,0.1,0.1,0.2c0,0.1,0,0.1,0.1,0.2c0,0.1,0,0.1,0.1,0.2c0,0.1,0,0.1,0.1,0.2
			c0,0.1,0,0.1,0.1,0.2l0,0c0,0.1,0,0.1,0.1,0.2c0,0.1,0,0.1,0,0.2l0,0c0,0.1,0,0.1,0,0.2l0,0c0,0.1,0,0.1,0,0.2l0,0
			c0,0.1,0,0.1,0,0.2l0,0c0,0.1,0,0.1,0,0.2c0,0.1,0,0.1,0,0.2l0,0c0,0.1,0,0.1,0,0.2l0,0c0,0.1,0,0.2,0,0.2l0,0
			C350.7,12.5,350.7,12.6,350.7,12.7z"/>
		<path class="st1" d="M145.7,61.6V39h-22.6c-1.3,0-2.4,0.5-3.4,1.4c-0.9,0.9-1.4,2.1-1.4,3.4v17.8c0,1.3,0.5,2.5,1.4,3.4
			c0.9,0.9,2.1,1.4,3.4,1.4h22.6V61.6L145.7,61.6z M7.6,80h13.7V43.8c0-1.3,0.5-2.4,1.4-3.4c0.9-0.9,2.1-1.4,3.4-1.4h16V25.3H24.7
			c-4.7,0-8.7,1.7-12,5c-3.4,3.4-5,7.4-5,12V80L7.6,80z M409.7,80H396V43.8c0-1.3-0.5-2.4-1.4-3.4c-0.9-0.9-2.1-1.4-3.4-1.4h-22.6
			v41H355V25.3h37.6c4.7,0,8.7,1.7,12,5c3.4,3.4,5,7.4,5,12V80L409.7,80z M348.4,80h-13.7V25.3h13.7V80L348.4,80z M328.2,62.9
			c0,4.7-1.7,8.7-5,12.1c-3.4,3.3-7.4,5-12,5h-20.5c-4.6,0-8.7-1.7-12.1-5c-3.3-3.4-5-7.5-5-12.1V42.4c0-4.7,1.7-8.7,5-12
			c3.4-3.4,7.4-5,12.1-5h20.5c4.7,0,8.7,1.7,12,5c3.4,3.4,5,7.4,5,12V62.9L328.2,62.9z M314.5,61.5V43.7c0-1.3-0.5-2.4-1.4-3.4
			c-0.9-0.9-2.1-1.4-3.4-1.4H292c-1.3,0-2.5,0.5-3.4,1.4c-0.9,0.9-1.4,2.1-1.4,3.4v17.8c0,1.3,0.5,2.5,1.4,3.4
			c0.9,0.9,2.1,1.4,3.4,1.4h17.8c1.3,0,2.4-0.5,3.4-1.4C314,64,314.5,62.8,314.5,61.5L314.5,61.5z M269.6,80h-30.8
			c-4.7,0-8.7-1.7-12.1-5c-3.4-3.4-5-7.5-5-12.1V42.4c0-4.7,1.7-8.7,5-12c3.4-3.4,7.4-5,12.1-5h27.3V39h-26c-1.3,0-2.5,0.5-3.4,1.4
			c-0.9,0.9-1.4,2.1-1.4,3.4v17.8c0,1.3,0.5,2.5,1.4,3.4c0.9,0.9,2.1,1.4,3.4,1.4h29.4V80L269.6,80z M163.2,62.9
			c0,4.7,1.7,8.7,5,12.1c3.3,3.3,7.4,5,12,5h37.6V61.6V25.3V6.9h-13.7v18.4h-23.9c-4.7,0-8.7,1.7-12,5c-3.4,3.4-5,7.4-5,12V62.9
			L163.2,62.9z M176.9,61.5V43.7c0-1.3,0.5-2.4,1.4-3.4c0.9-0.9,2.1-1.4,3.4-1.4h22.6v22.6v4.7h-22.6c-1.3,0-2.4-0.5-3.4-1.4
			C177.4,64,176.9,62.8,176.9,61.5L176.9,61.5z M100.8,41.7c0,4.3-1.5,8.1-4.6,11.5c-3.1,3.3-6.7,5-11,5H59.9v4.1
			c0,1.1,0.4,2.1,1.2,2.9c0.8,0.8,1.8,1.2,2.9,1.2h33.5V80H63.3c-4.6,0-8.7-1.7-12.1-5c-3.4-3.4-5-7.5-5-12.1V42.4
			c0-4.7,1.7-8.7,5-12c3.4-3.4,7.4-5,12.1-5h21.9c4.3,0,8,1.7,11,5C99.3,33.6,100.8,37.4,100.8,41.7L100.8,41.7z M87.1,43.1
			c0-1.2-0.4-2.2-1.1-2.9c-0.7-0.8-1.7-1.1-2.9-1.1H64c-1.1,0-2.1,0.4-2.9,1.2c-0.8,0.8-1.2,1.7-1.2,2.8v4.1h23.2
			c1.2,0,2.2-0.4,2.9-1.2C86.7,45.3,87.1,44.3,87.1,43.1L87.1,43.1z M145.7,25.3V6.9h13.7v18.4v36.3V80h-37.6c-4.7,0-8.7-1.7-12-5
			c-3.4-3.4-5-7.4-5-12.1V42.4c0-4.7,1.7-8.7,5-12c3.4-3.4,7.4-5,12-5H145.7z"/>
	</g>
	<g>
		<path class="st2" d="M162.3,108.6c0.5,0.7,0.8,1.5,0.8,2.5c0,1.4-0.5,2.5-1.5,3.2c-1,0.8-2.4,1.2-4.1,1.2h-5.9
			c-0.4,0-0.8-0.1-1-0.4c-0.3-0.2-0.4-0.6-0.4-1v-13.4c0-0.4,0.1-0.8,0.4-1c0.3-0.2,0.6-0.4,1-0.4h5.7c1.7,0,3,0.4,4,1.1
			c1,0.7,1.4,1.8,1.4,3.1c0,0.9-0.2,1.6-0.7,2.2c-0.5,0.6-1.1,1.1-1.9,1.4C161.1,107.4,161.8,107.9,162.3,108.6z M153.1,106.1h3.7
			c2,0,3.1-0.8,3.1-2.3c0-0.8-0.3-1.3-0.8-1.7c-0.5-0.4-1.3-0.6-2.3-0.6h-3.7V106.1z M159.5,112.6c0.5-0.4,0.7-1,0.7-1.8
			c0-0.8-0.2-1.4-0.7-1.8c-0.5-0.4-1.3-0.6-2.3-0.6h-4.1v4.8h4.1C158.3,113.2,159,113,159.5,112.6z"/>
		<path class="st2" d="M182.3,114.5c0,0.4-0.1,0.6-0.4,0.9s-0.6,0.3-1,0.3c-0.2,0-0.5-0.1-0.7-0.2c-0.2-0.1-0.4-0.3-0.6-0.5
			l-3.1-4.6c-0.3-0.5-0.6-0.8-1-1c-0.3-0.2-0.8-0.3-1.3-0.3H172v5.2c0,0.5-0.1,0.8-0.4,1.1s-0.6,0.4-1.1,0.4c-0.4,0-0.8-0.1-1.1-0.4
			c-0.3-0.3-0.4-0.6-0.4-1.1v-13.5c0-0.4,0.1-0.8,0.4-1c0.3-0.2,0.6-0.4,1-0.4h5.8c1.8,0,3.2,0.4,4.2,1.2c1,0.8,1.4,2,1.4,3.6
			c0,1.3-0.4,2.3-1.1,3.1c-0.7,0.8-1.7,1.3-3,1.6c0.4,0.1,0.8,0.3,1.2,0.6c0.3,0.3,0.7,0.7,1,1.1l2.1,3.2
			C182.2,113.9,182.3,114.2,182.3,114.5z M178.3,106.1c0.5-0.4,0.8-1.1,0.8-1.9c0-0.9-0.3-1.5-0.8-1.9c-0.5-0.4-1.3-0.6-2.5-0.6H172
			v5.1h3.9C177,106.7,177.8,106.5,178.3,106.1z"/>
		<path class="st2" d="M191.3,114.7c-1.2-0.7-2.1-1.6-2.7-2.9c-0.6-1.3-0.9-2.7-0.9-4.4c0-1.7,0.3-3.2,0.9-4.4
			c0.6-1.2,1.5-2.2,2.7-2.9c1.2-0.7,2.5-1,4.1-1c1.6,0,2.9,0.3,4.1,1c1.2,0.7,2,1.6,2.7,2.9c0.6,1.2,0.9,2.7,0.9,4.4
			c0,1.7-0.3,3.2-0.9,4.4c-0.6,1.3-1.5,2.2-2.7,2.9c-1.2,0.7-2.5,1-4.1,1C193.8,115.7,192.4,115.4,191.3,114.7z M198.9,111.8
			c0.8-1,1.3-2.5,1.3-4.4c0-1.9-0.4-3.4-1.3-4.4c-0.8-1-2-1.5-3.5-1.5c-1.5,0-2.7,0.5-3.5,1.5c-0.8,1-1.3,2.5-1.3,4.4
			c0,1.9,0.4,3.4,1.3,4.4c0.8,1,2,1.5,3.5,1.5C196.9,113.3,198,112.8,198.9,111.8z"/>
		<path class="st2" d="M229.7,99.4c0.2-0.2,0.5-0.2,0.8-0.2c0.4,0,0.7,0.1,1,0.3c0.3,0.2,0.4,0.5,0.4,0.9c0,0.1,0,0.3-0.1,0.6
			l-4.9,13.7c-0.1,0.3-0.3,0.5-0.6,0.7c-0.3,0.2-0.6,0.3-0.9,0.3c-0.3,0-0.7-0.1-0.9-0.3c-0.3-0.2-0.5-0.4-0.6-0.7l-3.8-10.8
			l-3.9,10.8c-0.1,0.3-0.3,0.5-0.6,0.7c-0.3,0.2-0.6,0.3-0.9,0.3s-0.6-0.1-0.9-0.3c-0.3-0.2-0.5-0.4-0.6-0.7L208,101
			c-0.1-0.2-0.1-0.4-0.1-0.6c0-0.4,0.1-0.7,0.4-0.9s0.6-0.3,1-0.3c0.3,0,0.6,0.1,0.8,0.2c0.2,0.2,0.4,0.4,0.5,0.7l3.9,11.2l4-11.2
			c0.1-0.3,0.3-0.5,0.5-0.7s0.5-0.3,0.8-0.3c0.3,0,0.6,0.1,0.8,0.3s0.4,0.4,0.5,0.7l3.9,11.3l4-11.4
			C229.3,99.8,229.5,99.5,229.7,99.4z"/>
		<path class="st2" d="M239.6,115.2c-1.1-0.3-1.9-0.7-2.6-1.3c-0.4-0.3-0.5-0.6-0.5-1.1c0-0.3,0.1-0.6,0.3-0.8
			c0.2-0.2,0.4-0.4,0.7-0.4c0.3,0,0.6,0.1,0.9,0.3c0.7,0.5,1.3,0.8,2.1,1s1.5,0.3,2.4,0.3c1.1,0,2-0.2,2.6-0.6
			c0.6-0.4,0.9-1,0.9-1.7c0-0.6-0.3-1-0.8-1.3c-0.6-0.3-1.5-0.6-2.8-0.9c-1.3-0.3-2.4-0.6-3.3-1s-1.5-0.9-1.9-1.5
			c-0.4-0.6-0.6-1.4-0.6-2.3c0-1,0.3-1.8,0.8-2.6s1.3-1.3,2.2-1.8c1-0.4,2-0.6,3.2-0.6c2.2,0,4,0.6,5.4,1.7c0.2,0.2,0.3,0.3,0.4,0.5
			c0.1,0.2,0.1,0.4,0.1,0.6c0,0.3-0.1,0.6-0.3,0.8c-0.2,0.2-0.4,0.4-0.7,0.4c-0.2,0-0.3,0-0.4-0.1s-0.3-0.1-0.5-0.3
			c-0.6-0.5-1.2-0.8-1.8-1c-0.6-0.2-1.3-0.3-2.2-0.3c-1,0-1.9,0.2-2.5,0.6c-0.6,0.4-0.9,1-0.9,1.8c0,0.6,0.3,1.1,0.8,1.4
			c0.5,0.3,1.4,0.7,2.7,0.9c1.4,0.3,2.5,0.6,3.3,1c0.9,0.4,1.5,0.9,2,1.4c0.5,0.6,0.7,1.3,0.7,2.2c0,1-0.3,1.8-0.8,2.5
			c-0.5,0.7-1.3,1.3-2.2,1.7c-1,0.4-2.1,0.6-3.3,0.6C241.8,115.7,240.7,115.6,239.6,115.2z"/>
		<path class="st2" d="M255.6,115.1c-0.3-0.2-0.4-0.6-0.4-1v-13.4c0-0.4,0.1-0.8,0.4-1c0.3-0.2,0.6-0.4,1-0.4h8.3
			c0.4,0,0.8,0.1,1,0.3c0.2,0.2,0.4,0.5,0.4,0.9c0,0.4-0.1,0.7-0.4,0.9c-0.2,0.2-0.6,0.3-1,0.3h-6.8v4.5h6.4c0.4,0,0.8,0.1,1,0.3
			s0.4,0.5,0.4,0.9c0,0.4-0.1,0.7-0.4,0.9s-0.6,0.3-1,0.3h-6.4v4.7h6.8c0.4,0,0.8,0.1,1,0.3c0.2,0.2,0.4,0.5,0.4,0.9
			c0,0.4-0.1,0.7-0.4,0.9c-0.2,0.2-0.6,0.3-1,0.3h-8.3C256.2,115.5,255.9,115.4,255.6,115.1z"/>
		<path class="st2" d="M285.3,114.5c0,0.4-0.1,0.6-0.4,0.9s-0.6,0.3-1,0.3c-0.2,0-0.5-0.1-0.7-0.2c-0.2-0.1-0.4-0.3-0.6-0.5
			l-3.1-4.6c-0.3-0.5-0.6-0.8-1-1c-0.3-0.2-0.8-0.3-1.3-0.3h-2.3v5.2c0,0.5-0.1,0.8-0.4,1.1s-0.6,0.4-1.1,0.4
			c-0.4,0-0.8-0.1-1.1-0.4c-0.3-0.3-0.4-0.6-0.4-1.1v-13.5c0-0.4,0.1-0.8,0.4-1c0.3-0.2,0.6-0.4,1-0.4h5.8c1.8,0,3.2,0.4,4.2,1.2
			c1,0.8,1.4,2,1.4,3.6c0,1.3-0.4,2.3-1.1,3.1c-0.7,0.8-1.7,1.3-3,1.6c0.4,0.1,0.8,0.3,1.2,0.6c0.3,0.3,0.7,0.7,1,1.1l2.1,3.2
			C285.2,113.9,285.3,114.2,285.3,114.5z M281.2,106.1c0.5-0.4,0.8-1.1,0.8-1.9c0-0.9-0.3-1.5-0.8-1.9c-0.5-0.4-1.3-0.6-2.5-0.6
			h-3.9v5.1h3.9C279.9,106.7,280.7,106.5,281.2,106.1z"/>
		<path class="st2" d="M321.5,99.4c0.2-0.2,0.5-0.2,0.8-0.2c0.4,0,0.7,0.1,1,0.3c0.3,0.2,0.4,0.5,0.4,0.9c0,0.1,0,0.3-0.1,0.6
			l-4.9,13.7c-0.1,0.3-0.3,0.5-0.6,0.7c-0.3,0.2-0.6,0.3-0.9,0.3c-0.3,0-0.7-0.1-0.9-0.3c-0.3-0.2-0.5-0.4-0.6-0.7l-3.8-10.8
			l-3.9,10.8c-0.1,0.3-0.3,0.5-0.6,0.7c-0.3,0.2-0.6,0.3-0.9,0.3s-0.6-0.1-0.9-0.3c-0.3-0.2-0.5-0.4-0.6-0.7l-4.9-13.7
			c-0.1-0.2-0.1-0.4-0.1-0.6c0-0.4,0.1-0.7,0.4-0.9s0.6-0.3,1-0.3c0.3,0,0.6,0.1,0.8,0.2c0.2,0.2,0.4,0.4,0.5,0.7l3.9,11.2l4-11.2
			c0.1-0.3,0.3-0.5,0.5-0.7s0.5-0.3,0.8-0.3c0.3,0,0.6,0.1,0.8,0.3s0.4,0.4,0.5,0.7l3.9,11.3l4-11.4
			C321.1,99.8,321.3,99.5,321.5,99.4z"/>
		<path class="st2" d="M342.7,114.3c0,0.4-0.1,0.7-0.4,0.9c-0.3,0.2-0.6,0.4-1,0.4c-0.2,0-0.5-0.1-0.7-0.2c-0.2-0.1-0.4-0.3-0.5-0.6
			l-1.4-3.1h-8.1l-1.4,3.1c-0.1,0.3-0.3,0.5-0.5,0.6c-0.2,0.1-0.5,0.2-0.7,0.2c-0.4,0-0.7-0.1-1-0.4c-0.3-0.2-0.4-0.5-0.4-0.9
			c0-0.2,0-0.4,0.1-0.6l6.3-13.6c0.1-0.3,0.3-0.5,0.6-0.7c0.3-0.2,0.6-0.2,0.9-0.2c0.3,0,0.6,0.1,0.9,0.2c0.3,0.2,0.5,0.4,0.6,0.7
			l6.4,13.6C342.7,113.9,342.7,114.1,342.7,114.3z M331.6,109.4h6.1l-3-6.8L331.6,109.4z"/>
		<path class="st2" d="M348.5,115.1c-0.2-0.2-0.4-0.6-0.4-1v-13.5c0-0.4,0.1-0.8,0.4-1.1c0.3-0.3,0.6-0.4,1.1-0.4
			c0.5,0,0.8,0.1,1.1,0.4c0.3,0.3,0.4,0.6,0.4,1.1v12.4h6.5c0.9,0,1.4,0.4,1.4,1.2c0,0.8-0.5,1.2-1.4,1.2h-8
			C349.1,115.5,348.8,115.4,348.5,115.1z"/>
		<path class="st2" d="M364.5,115.1c-0.2-0.2-0.4-0.6-0.4-1v-13.5c0-0.4,0.1-0.8,0.4-1.1c0.3-0.3,0.6-0.4,1.1-0.4
			c0.5,0,0.8,0.1,1.1,0.4c0.3,0.3,0.4,0.6,0.4,1.1v12.4h6.5c0.9,0,1.4,0.4,1.4,1.2c0,0.8-0.5,1.2-1.4,1.2h-8
			C365.1,115.5,364.8,115.4,364.5,115.1z"/>
		<path class="st2" d="M380.5,115.1c-0.3-0.2-0.4-0.6-0.4-1v-13.4c0-0.4,0.1-0.8,0.4-1c0.3-0.2,0.6-0.4,1-0.4h8.3
			c0.4,0,0.8,0.1,1,0.3c0.2,0.2,0.4,0.5,0.4,0.9c0,0.4-0.1,0.7-0.4,0.9c-0.2,0.2-0.6,0.3-1,0.3H383v4.5h6.4c0.4,0,0.8,0.1,1,0.3
			s0.4,0.5,0.4,0.9c0,0.4-0.1,0.7-0.4,0.9s-0.6,0.3-1,0.3H383v4.7h6.8c0.4,0,0.8,0.1,1,0.3c0.2,0.2,0.4,0.5,0.4,0.9
			c0,0.4-0.1,0.7-0.4,0.9c-0.2,0.2-0.6,0.3-1,0.3h-8.3C381.1,115.5,380.8,115.4,380.5,115.1z"/>
		<path class="st2" d="M401.1,115.2c-0.3-0.3-0.4-0.6-0.4-1.1v-12.4h-4.2c-0.9,0-1.4-0.4-1.4-1.2c0-0.8,0.5-1.2,1.4-1.2h11.3
			c0.9,0,1.4,0.4,1.4,1.2c0,0.8-0.5,1.2-1.4,1.2h-4.2v12.4c0,0.4-0.1,0.8-0.4,1.1c-0.3,0.3-0.6,0.4-1.1,0.4
			C401.8,115.6,401.4,115.5,401.1,115.2z"/>
	</g>
</g>
<g id="Big_coin">
</g>
<g id="Lightnin">
</g>
<g id="Coin">
</g>
</svg>
